<svg width="32" height="32" viewBox="0 0 32 32" fill="none" xmlns="http://www.w3.org/2000/svg">
  <path fill="#000000" d="M27.9534 9.46135C25.5814 9.46135 23.8842 11.5538 22.1363 13.8835C21.0519 8.93611 19.8461 4 16.0085 4C12.1708 4 10.9651 8.94176 9.87787 13.8835C8.13272 11.5538 6.43276 9.46135 4.06354 9.46135C2.55277 9.46135 0 10.4892 0 14.3353L0.016943 21.3329C0.016943 25.1084 2.03318 26.0318 3.24179 26.348C5.32863 26.8902 10.3495 27.3929 16 27.3929C21.6505 27.3929 26.6742 26.8902 28.7582 26.348C29.9668 26.0318 31.9831 25.1084 31.9831 21.3329L32 14.3353C32 10.4892 29.4585 9.46135 27.9365 9.46135H27.9534ZM15.9972 6.17437C18.2986 6.17437 19.1712 10.7123 20.3939 16.1539C19.0639 17.8002 17.6435 19.1331 15.9972 19.1331C14.3509 19.1331 12.9502 17.8002 11.6117 16.1539C12.7413 11.0709 13.6364 6.17437 16.0085 6.17437H15.9972ZM2.19696 21.3329L2.18002 14.3353C2.18002 11.904 3.49876 11.6414 4.06354 11.6414C5.73526 11.6414 7.53124 14.4342 9.24815 16.6763C8.03671 21.7593 6.75468 24.8655 3.72467 24.2217C2.93964 24.0071 2.19696 23.5072 2.19696 21.3329V21.3329ZM8.12707 24.8712C9.46841 23.414 10.324 21.1437 10.9735 18.7377C12.3855 20.2033 13.9922 21.3131 16 21.3131C18.0078 21.3131 19.6287 20.2033 21.0321 18.7434C21.6844 21.1465 22.5372 23.4197 23.8758 24.8768C21.5348 25.0914 18.7137 25.2213 16.0085 25.2213C13.3032 25.2213 10.4765 25.0914 8.13554 24.8768L8.12707 24.8712ZM29.8341 21.3329C29.8341 23.5072 29.0914 24.0071 28.3036 24.2217C25.2736 24.8627 23.9944 21.7621 22.7801 16.6763C24.497 14.437 26.2958 11.6414 27.9675 11.6414C28.5323 11.6414 29.851 11.904 29.851 14.3353L29.8341 21.3329Z"/>
</svg>
