<svg width="84" height="80" viewBox="0 0 84 80" fill="none" xmlns="http://www.w3.org/2000/svg">
<g clip-path="url(#clip0_206_2360)">
<path fill-rule="evenodd" clip-rule="evenodd" d="M83.75 2.06813C83.7488 1.93386 83.7354 1.79997 83.71 1.66813C83.71 1.62813 83.69 1.59213 83.678 1.55213C83.666 1.51213 83.626 1.37213 83.594 1.28413L83.534 1.15613C83.4967 1.07978 83.454 1.00625 83.406 0.936127C83.378 0.892127 83.35 0.848127 83.318 0.804127L83.262 0.728127C83.23 0.692127 83.194 0.664127 83.162 0.632127L83.082 0.536127L83.018 0.492127C82.9594 0.441999 82.8979 0.395257 82.834 0.352127L82.678 0.252127C82.6092 0.21608 82.5385 0.184026 82.466 0.156127L82.298 0.0881271C82.222 0.0641271 82.142 0.0521271 82.066 0.0361271L81.894 0.000127074C81.7994 -0.00590173 81.7046 -0.00590173 81.61 0.000127074H81.45C80.378 0.0961271 66.214 1.44813 50.294 8.54813C40.734 12.8001 33.334 19.3281 28.678 27.2521L27.478 27.7721C10.434 35.3801 0.25 50.1681 0.25 67.3321V67.6201C0.250405 68.0152 0.363531 68.4019 0.576092 68.735C0.788654 69.068 1.09182 69.3334 1.45 69.5001C1.72489 69.6261 2.02362 69.6916 2.326 69.6921H58.906C59.016 69.6927 59.1257 69.6834 59.234 69.6641L59.378 69.6281C59.446 69.6081 59.514 69.5961 59.582 69.5721C59.65 69.5481 59.682 69.5241 59.734 69.5001C59.786 69.4761 59.854 69.4521 59.91 69.4201C60.0156 69.3577 60.1159 69.2868 60.21 69.2081L83.01 49.9841C83.2431 49.7882 83.43 49.5432 83.5572 49.2666C83.6845 48.9899 83.7489 48.6886 83.746 48.3841V2.06813H83.75ZM63.134 61.3121L60.946 63.1561V22.2561L79.602 6.53213V47.4321L63.134 61.3121ZM25.886 50.4681H56.798V65.5441H7.998L25.886 50.4681ZM51.978 12.3401C59.2643 9.13194 66.8863 6.74782 74.702 5.23213L58.026 19.2921C50.3286 20.2313 42.7578 22.014 35.45 24.6081C39.578 19.5681 45.146 15.3881 51.978 12.3401ZM31.486 30.5721C39.6068 27.2294 48.108 24.8985 56.798 23.6321V46.3201H27.246C27.4591 40.819 28.9083 35.4366 31.486 30.5721ZM25.794 33.2201C24.0463 37.7552 23.1172 42.5644 23.05 47.4241L4.65 62.9521C6.042 50.3361 13.534 39.7841 25.794 33.2201Z" fill="#3C72FF"/>
</g>
<defs>
<clipPath id="clip0_206_2360">
<rect width="83.5" height="69.692" fill="white" transform="translate(0.25)"/>
</clipPath>
</defs>
</svg>
